<?xml version="1.0" encoding="utf-8"?>
<!-- Generator: Adobe Illustrator 19.0.0, SVG Export Plug-In . SVG Version: 6.00 Build 0)  -->
<svg version="1.1" id="layer" xmlns="http://www.w3.org/2000/svg" xmlns:xlink="http://www.w3.org/1999/xlink" x="0px" y="0px"
	 viewBox="-153 -46 652 652" style="enable-background:new -153 -46 652 652;" xml:space="preserve">
<style type="text/css">
	.st0{fill:#212F3D;}
	.st1{fill:#F38B00;}
	.st2{fill:#FFD100;}
</style>
<path class="st0" d="M149.4,318c-6.5,1-15.5,2.2-22.2,2.2c-15.7,0-18.2-8.5-18.2-26.2c0-17.8,2.2-26.8,18.2-26.8
	c7.5,0,16,1.1,22.7,2.2l1.2-10.2c-5.8-1-14-2-23.9-2c-29.2,0-34.1,16.2-34.1,36.8c0,21.1,5.9,36.3,34.1,36.3
	c8.3,0,17.3-1.2,23.4-2.1L149.4,318z"/>
<path class="st1" d="M71.1,279.7c0-0.6-0.5-1.1-1.1-1.2H-9.7c-1.5,0-3,0.1-4.3,0.3c-3.2,0.5-6,1.4-8.5,2.5c-0.1,0-0.1,0.1-0.2,0.1
	c-0.2,0.1-0.4,0.2-0.7,0.3c-6.3,3.2-9.7,7.8-10.8,9.5l-0.4,0.6l-1.7,2.8l-44.6,71.9c-0.1,0.2-0.1,0.4,0,0.6c0.2,0.7,0.8,1.1,1.5,0.9
	v0l80.6,0.1c4.6-0.2,16-1.8,22.9-12.6l46.8-75.2C71,280.1,71.1,279.9,71.1,279.7"/>
<path class="st2" d="M-92.3,363.7c0.5,0.3,1.2,0.1,1.5-0.3L19.1,186.1c0.1-0.2,0.1-0.3,0.1-0.4c0-0.7-0.6-1.2-1.2-1.2h0h-95.2
	c-0.7,0-1.1,0.5-1.2,0.7l0,0l-50.5,81.5c-1.8,3.5-4.6,11.3,0.2,21.4l36,75.3C-92.6,363.5-92.5,363.6-92.3,363.7"/>
<path class="st0" d="M273,259.2c15.3,0,23.8,5.9,23.8,18.3c0,8.9-3.5,13.7-8.6,16.2c5.9,2.1,11.4,6.5,11.4,16.3
	c0,16-10.4,20.8-24.7,20.8h-29.8v-71.6H273z M254.7,297.6V324h20.2c9.4,0,15-2.9,15-14c0-12.2-10.5-12.4-15.9-12.4H254.7z
	 M254.7,266v25h19.4c9.5,0,13.1-4.2,13.1-13.4c0-8.6-4-11.5-14.2-11.5H254.7z"/>
<path class="st0" d="M311.7,280.1c7.6-0.8,13.2-1.4,19.2-1.4c13.3,0,19.6,6.1,19.6,16.5v32c-5.8,1.9-14.8,4.5-26.3,4.5
	c-10.6,0-17.4-5.5-17.4-15.5c0-8.7,5.4-14.3,18.4-15.3l15.5-1.4V295c0-7.1-3.2-10.1-9.8-10.1c-5.1,0-12.2,0.6-19.9,1.4L311.7,280.1z
	 M340.7,305.4l-14.5,1.2c-7.1,0.6-9.4,3.8-9.4,9.5c0,5.6,2.8,9.5,7.7,9.6c6.1,0,12.3-1.4,16.2-2.4V305.4z"/>
<path class="st0" d="M363.1,283.4c8.3-3.1,15.1-4.7,23.2-4.7c17.6,0,23.9,8.4,23.9,25.4v26.6h-10v-26.6c0-14-3.6-19.5-13.9-19.5
	c-5.2,0-10.2,1.2-13.4,2.2v43.9h-9.8V283.4z"/>
<polygon class="st0" points="422.4,330.8 422.4,259.2 432.2,259.2 432.2,298.5 438.4,298.5 457.5,279.7 468.6,279.7 445.1,302.9 
	468.4,330.8 457.5,330.8 438.5,307.6 432.2,307.6 432.2,330.8 "/>
<path class="st0" d="M159.1,280.2c10.6-1.1,15-1.5,21.6-1.5c15.2,0,22.5,6.7,22.5,17.1v31c-4.9,1.5-15.5,5-29.2,5
	c-12.3,0-20.2-6.2-20.2-16.3c0-8.7,6.3-14.8,21-16l12.9-1.2v-3.2c0-5.3-2-7.7-6.9-7.7c-5.2,0-11.8,0.6-22.7,1.6L159.1,280.2z
	 M187.6,307.1l-11.3,0.9c-5.3,0.4-6.7,2.4-6.7,7.5c0,3.8,1.7,7.3,5,7.5c4.7,0,9.6-1,13.1-1.7V307.1z"/>
<rect x="212.6" y="259.2" class="st0" width="15.6" height="71.6"/>
</svg>
